<svg width="90" height="46" viewBox="0 0 90 46" fill="none" xmlns="http://www.w3.org/2000/svg">
<path d="M9.57363 17.848C9.57363 15.384 9.62963 12.928 9.74163 10.48C9.85363 8.032 10.1336 5.592 10.5816 3.16C10.6616 2.744 10.7336 2.392 10.7976 2.104C10.8776 1.816 10.9496 1.64 11.0136 1.576C11.0936 1.48 11.1576 1.424 11.2056 1.408C11.2696 1.376 11.3976 1.376 11.5896 1.408C11.9896 1.456 12.3176 1.568 12.5736 1.744C12.8296 1.92 12.9336 2.12 12.8856 2.344C12.5656 3.944 12.3256 5.504 12.1656 7.024C12.0216 8.528 11.9256 9.904 11.8776 11.152C11.8296 12.4 11.8056 13.48 11.8056 14.392C11.8216 15.304 11.8216 15.96 11.8056 16.36C11.7896 16.792 11.7736 17.304 11.7576 17.896C11.7416 18.488 11.7336 19.096 11.7336 19.72C11.7336 20.344 11.7336 20.96 11.7336 21.568C11.7336 22.192 11.7416 22.752 11.7576 23.248C11.7736 23.744 11.7896 24.152 11.8056 24.472C11.8216 24.808 11.8456 25.008 11.8776 25.072C11.9256 25.2 11.9416 25.28 11.9256 25.312C11.9256 25.344 11.8696 25.4 11.7576 25.48C11.5496 25.656 11.2696 25.768 10.9176 25.816C10.5816 25.864 10.3336 25.824 10.1736 25.696C10.0296 25.552 9.93363 25.384 9.88563 25.192C9.78963 24.792 9.70963 24.016 9.64563 22.864C9.59763 21.712 9.57363 20.04 9.57363 17.848ZM19.7976 5.296C18.4376 5.584 17.1176 5.856 15.8376 6.112C14.5736 6.352 13.2776 6.616 11.9496 6.904C10.6376 7.192 9.26163 7.512 7.82163 7.864C6.39763 8.216 4.84563 8.64 3.16563 9.136C2.60563 9.296 2.17363 9.416 1.86963 9.496C1.56563 9.576 1.33363 9.632 1.17363 9.664C1.01363 9.68 0.901631 9.672 0.837631 9.64C0.789631 9.608 0.741631 9.568 0.693631 9.52C0.581631 9.424 0.485631 9.304 0.405631 9.16C0.325631 9.016 0.261631 8.872 0.213631 8.728C0.181631 8.584 0.173631 8.456 0.189631 8.344C0.205631 8.216 0.245631 8.12 0.309631 8.056C0.373631 8.008 0.501631 7.944 0.693631 7.864C0.885631 7.768 1.12563 7.672 1.41363 7.576C1.70163 7.464 2.02163 7.352 2.37363 7.24C2.74163 7.112 3.10963 7 3.47763 6.904C4.69363 6.552 6.03763 6.2 7.50963 5.848C8.98163 5.48 10.4616 5.136 11.9496 4.816C13.4376 4.48 14.8776 4.176 16.2696 3.904C17.6616 3.632 18.8936 3.408 19.9656 3.232L21.4776 2.968C21.6536 2.936 21.7896 3.008 21.8856 3.184C21.9816 3.344 22.0456 3.536 22.0776 3.76C22.1096 3.968 22.1096 4.176 22.0776 4.384C22.0616 4.592 22.0216 4.72 21.9576 4.768C21.9256 4.8 21.6936 4.864 21.2616 4.96C20.8456 5.056 20.3576 5.168 19.7976 5.296ZM22.6705 10.696C22.6705 10.984 22.6545 11.36 22.6225 11.824C22.5905 12.288 22.5585 12.8 22.5265 13.36C22.4945 13.92 22.4625 14.504 22.4305 15.112C22.3985 15.72 22.3745 16.32 22.3585 16.912C22.3585 17.488 22.3745 18.032 22.4065 18.544C22.4385 19.056 22.4945 19.488 22.5745 19.84C22.6225 20.032 22.6945 20.144 22.7905 20.176C22.8865 20.224 23.0225 20.272 23.1985 20.32C23.4225 20.384 23.5265 20.504 23.5105 20.68C23.4945 20.856 23.3985 21.032 23.2225 21.208C23.0625 21.384 22.8465 21.528 22.5745 21.64C22.3025 21.752 22.0225 21.768 21.7345 21.688C21.3025 21.576 20.9505 21.36 20.6785 21.04C20.4225 20.72 20.2225 20.344 20.0785 19.912C19.9345 19.496 19.8305 19.056 19.7665 18.592C19.7185 18.128 19.6865 17.704 19.6705 17.32L19.6225 16L18.8785 16.744C18.6545 16.968 18.4545 17.152 18.2785 17.296C18.1185 17.44 17.9665 17.568 17.8225 17.68C17.6945 17.792 17.5585 17.888 17.4145 17.968C17.2865 18.048 17.1425 18.128 16.9825 18.208C16.6465 18.384 16.3425 18.48 16.0705 18.496C15.8145 18.496 15.5505 18.416 15.2785 18.256C15.0545 18.128 14.8385 17.952 14.6305 17.728C14.4225 17.488 14.2705 17.256 14.1745 17.032C14.0465 16.792 13.9905 16.504 14.0065 16.168C14.0225 15.832 14.0865 15.488 14.1985 15.136C14.3105 14.768 14.4785 14.4 14.7025 14.032C14.9105 13.664 15.1585 13.32 15.4465 13C16.1025 12.296 16.8065 11.88 17.5585 11.752C18.3265 11.624 19.0225 11.752 19.6465 12.136C19.9825 11.208 20.2545 10.512 20.4625 10.048C20.6865 9.568 20.9105 9.328 21.1345 9.328C21.3425 9.328 21.5905 9.392 21.8785 9.52C22.1665 9.648 22.3745 9.792 22.5025 9.952C22.5825 10.064 22.6305 10.16 22.6465 10.24C22.6625 10.32 22.6705 10.472 22.6705 10.696ZM18.5425 13.264L18.1105 13.48C17.9345 13.576 17.7505 13.712 17.5585 13.888C17.3825 14.064 17.1985 14.264 17.0065 14.488C16.8305 14.696 16.6625 14.928 16.5025 15.184C16.3585 15.424 16.2385 15.656 16.1425 15.88C16.0785 16.04 16.0465 16.128 16.0465 16.144C16.0465 16.16 16.0865 16.152 16.1665 16.12C16.2785 16.056 16.4545 15.912 16.6945 15.688C16.9345 15.448 17.1825 15.192 17.4385 14.92C17.6945 14.632 17.9185 14.352 18.1105 14.08C18.3185 13.808 18.4465 13.6 18.4945 13.456L18.5425 13.264ZM26.2851 10.96C26.7811 16.56 26.9011 22.992 26.6451 30.256C26.6451 30.4 26.5491 30.52 26.3571 30.616C26.1811 30.712 25.9811 30.768 25.7571 30.784C25.5331 30.8 25.3251 30.776 25.1331 30.712C24.9571 30.664 24.8691 30.552 24.8691 30.376C24.7891 28.632 24.7171 26.888 24.6531 25.144C24.5891 23.416 24.5411 21.712 24.5091 20.032C24.4771 18.368 24.4531 16.752 24.4371 15.184C24.4211 13.616 24.4131 12.136 24.4131 10.744C24.4131 10.632 24.5011 10.528 24.6771 10.432C24.8691 10.336 25.0771 10.288 25.3011 10.288C25.5411 10.272 25.7571 10.312 25.9491 10.408C26.1411 10.504 26.2531 10.688 26.2851 10.96ZM24.8211 18.448C24.6451 18.128 24.5891 17.76 24.6531 17.344C24.7331 16.912 24.8851 16.472 25.1091 16.024C25.3491 15.576 25.6371 15.136 25.9731 14.704C26.3091 14.272 26.6531 13.888 27.0051 13.552C27.3571 13.216 27.6931 12.944 28.0131 12.736C28.3331 12.528 28.5891 12.424 28.7811 12.424C29.2291 12.424 29.6211 12.536 29.9571 12.76C30.2931 12.984 30.5651 13.272 30.7731 13.624C30.9971 13.96 31.1651 14.336 31.2771 14.752C31.3891 15.168 31.4451 15.568 31.4451 15.952C31.4451 16.912 31.1811 17.704 30.6531 18.328C30.1251 18.952 29.3571 19.264 28.3491 19.264C28.2051 19.264 27.9491 19.24 27.5811 19.192C27.2291 19.16 26.8611 19.104 26.4771 19.024C26.0931 18.96 25.7331 18.88 25.3971 18.784C25.0771 18.688 24.8851 18.576 24.8211 18.448ZM29.4531 13.816C29.3571 13.816 29.2211 13.904 29.0451 14.08C28.8691 14.256 28.6771 14.48 28.4691 14.752C28.2771 15.024 28.0771 15.32 27.8691 15.64C27.6611 15.96 27.4691 16.272 27.2931 16.576C27.1331 16.864 26.9971 17.12 26.8851 17.344C26.7731 17.568 26.7171 17.712 26.7171 17.776C26.7171 17.808 26.7251 17.848 26.7411 17.896C26.7571 17.944 26.8371 17.992 26.9811 18.04C27.3331 18.152 27.6691 18.136 27.9891 17.992C28.3251 17.832 28.6211 17.608 28.8771 17.32C29.1331 17.016 29.3331 16.672 29.4771 16.288C29.6211 15.888 29.6931 15.504 29.6931 15.136C29.6931 15.104 29.6851 15.016 29.6691 14.872C29.6691 14.728 29.6531 14.584 29.6211 14.44C29.6051 14.28 29.5811 14.136 29.5491 14.008C29.5171 13.88 29.4851 13.816 29.4531 13.816ZM48.1769 20.176C48.2089 20.272 48.1689 20.408 48.0569 20.584C47.9449 20.76 47.8009 20.936 47.6249 21.112C47.4649 21.304 47.2889 21.472 47.0969 21.616C46.9049 21.776 46.7369 21.872 46.5929 21.904C46.3849 21.968 46.1689 22.008 45.9449 22.024C45.7369 22.04 45.5129 22.016 45.2729 21.952C44.3769 21.728 43.7609 21.152 43.4249 20.224C43.2969 19.888 43.1849 19.408 43.0889 18.784C42.9929 18.16 42.9209 17.432 42.8729 16.6C42.8409 16.392 42.8169 16.192 42.8009 16C42.8009 15.808 42.7929 15.648 42.7769 15.52C42.7609 15.36 42.7529 15.216 42.7529 15.088C42.7209 15.072 42.6329 15.216 42.4889 15.52C42.3449 15.824 42.1849 16.184 42.0089 16.6C41.8329 17 41.6649 17.4 41.5049 17.8C41.3609 18.2 41.2729 18.48 41.2409 18.64C41.2089 18.8 41.1769 18.92 41.1449 19C41.1289 19.096 41.0969 19.16 41.0489 19.192C41.0009 19.24 40.9369 19.272 40.8569 19.288C40.7929 19.304 40.6969 19.312 40.5689 19.312C40.2969 19.328 40.0249 19.296 39.7529 19.216C39.4969 19.136 39.3049 19.032 39.1769 18.904C39.1289 18.856 39.0969 18.808 39.0809 18.76C39.0649 18.712 39.0489 18.6 39.0329 18.424C39.0329 18.232 39.0329 17.96 39.0329 17.608C39.0489 17.256 39.0649 16.752 39.0809 16.096C39.1129 14.8 39.1449 13.64 39.1769 12.616C39.2089 11.592 39.2489 10.656 39.2969 9.808C39.3609 8.96 39.4409 8.176 39.5369 7.456C39.6329 6.736 39.7609 6.016 39.9209 5.296C40.0649 4.592 40.2169 3.992 40.3769 3.496C40.5369 3 40.7049 2.584 40.8809 2.248C41.0569 1.912 41.2409 1.632 41.4329 1.408C41.6249 1.184 41.8329 0.999999 42.0569 0.855999C42.4249 0.599999 42.8409 0.48 43.3049 0.495999C43.7689 0.511999 44.2089 0.727999 44.6249 1.144C44.9289 1.448 45.1449 1.752 45.2729 2.056C45.4009 2.36 45.4809 2.736 45.5129 3.184C45.5289 3.744 45.4329 4.264 45.2249 4.744C45.0169 5.208 44.7289 5.648 44.3609 6.064C44.0089 6.464 43.6009 6.84 43.1369 7.192C42.6889 7.544 42.2409 7.864 41.7929 8.152C41.7289 8.184 41.6409 8.648 41.5289 9.544C41.4329 10.44 41.3049 11.88 41.1449 13.864C41.3529 13.608 41.5369 13.4 41.6969 13.24C41.8569 13.064 41.9929 12.936 42.1049 12.856C42.2329 12.776 42.3529 12.72 42.4649 12.688C42.5769 12.656 42.6969 12.64 42.8249 12.64C43.0489 12.64 43.2969 12.696 43.5689 12.808C43.8409 12.92 44.0409 13.04 44.1689 13.168C44.2649 13.264 44.3369 13.392 44.3849 13.552C44.4489 13.696 44.5049 13.896 44.5529 14.152C44.6009 14.408 44.6409 14.728 44.6729 15.112C44.7209 15.496 44.7609 15.976 44.7929 16.552C44.8089 16.744 44.8249 16.952 44.8409 17.176C44.8569 17.384 44.8729 17.592 44.8889 17.8C44.9049 18.008 44.9209 18.208 44.9369 18.4C44.9689 18.576 44.9929 18.728 45.0089 18.856C45.0409 19.096 45.0809 19.328 45.1289 19.552C45.1769 19.792 45.2249 20.008 45.2729 20.2C45.3209 20.392 45.3689 20.552 45.4169 20.68C45.4649 20.808 45.5049 20.88 45.5369 20.896C45.6009 20.928 45.8969 20.624 46.4249 19.984C46.5209 19.872 46.6489 19.8 46.8089 19.768C46.9849 19.736 47.1529 19.728 47.3129 19.744C47.4889 19.776 47.6489 19.824 47.7929 19.888C47.9529 19.968 48.0809 20.064 48.1769 20.176ZM43.8329 1.912C43.5289 2.024 43.2649 2.256 43.0409 2.608C42.8329 2.96 42.6489 3.352 42.4889 3.784C42.3449 4.216 42.2249 4.648 42.1289 5.08C42.0489 5.512 41.9929 5.864 41.9609 6.136C42.2489 5.912 42.5289 5.64 42.8009 5.32C43.0729 4.984 43.3049 4.632 43.4969 4.264C43.6889 3.88 43.8169 3.488 43.8809 3.088C43.9609 2.688 43.9449 2.296 43.8329 1.912ZM53.1565 13.168C53.2045 13.088 53.2845 13.064 53.3965 13.096C53.5085 13.112 53.6205 13.16 53.7325 13.24C53.8445 13.32 53.9245 13.424 53.9725 13.552C54.0365 13.68 54.0445 13.8 53.9965 13.912C53.7245 14.488 53.4205 15.056 53.0845 15.616C52.7645 16.16 52.4285 16.664 52.0765 17.128C51.7245 17.576 51.3725 17.976 51.0205 18.328C50.6685 18.664 50.3405 18.92 50.0365 19.096C49.7485 19.256 49.4445 19.336 49.1245 19.336C48.8205 19.336 48.5245 19.28 48.2365 19.168C47.9645 19.056 47.7085 18.904 47.4685 18.712C47.2285 18.504 47.0365 18.28 46.8925 18.04C46.7965 17.88 46.7085 17.72 46.6285 17.56C46.5645 17.4 46.5165 17.232 46.4845 17.056C46.4525 16.864 46.4365 16.648 46.4365 16.408C46.4205 16.168 46.4125 15.888 46.4125 15.568C46.4605 14.352 46.6605 13.368 47.0125 12.616C47.3645 11.848 47.8365 11.376 48.4285 11.2C48.7165 11.12 49.0125 11.112 49.3165 11.176C49.6365 11.24 49.9245 11.36 50.1805 11.536C50.4525 11.712 50.6765 11.936 50.8525 12.208C51.0445 12.48 51.1565 12.776 51.1885 13.096C51.2205 13.48 51.1485 13.84 50.9725 14.176C50.8125 14.512 50.5885 14.792 50.3005 15.016C50.0285 15.224 49.7165 15.368 49.3645 15.448C49.0285 15.512 48.6925 15.48 48.3565 15.352C48.3405 15.448 48.3165 15.656 48.2845 15.976C48.2525 16.28 48.2365 16.592 48.2365 16.912C48.2525 17.232 48.2925 17.512 48.3565 17.752C48.4205 17.992 48.5405 18.096 48.7165 18.064C48.9405 18.016 49.1965 17.88 49.4845 17.656C49.7885 17.416 50.1565 17.08 50.5885 16.648C51.1645 16.088 51.6445 15.512 52.0285 14.92C52.4285 14.312 52.8045 13.728 53.1565 13.168ZM48.6205 13.888C48.5725 14.016 48.5885 14.08 48.6685 14.08C48.7005 14.08 48.7405 14.064 48.7885 14.032C48.8525 13.984 48.9085 13.936 48.9565 13.888C49.0845 13.744 49.1885 13.568 49.2685 13.36C49.3485 13.152 49.4205 12.864 49.4845 12.496C49.3085 12.656 49.1325 12.888 48.9565 13.192C48.7965 13.48 48.6845 13.712 48.6205 13.888ZM61.8618 15.592C61.9258 15.752 61.9098 16.072 61.8138 16.552C61.7338 17.032 61.5898 17.552 61.3818 18.112C61.1738 18.656 60.9258 19.176 60.6378 19.672C60.3498 20.168 60.0458 20.504 59.7258 20.68C59.5338 20.76 59.2938 20.8 59.0058 20.8C58.7178 20.816 58.4538 20.784 58.2138 20.704C57.6538 20.544 57.2458 20.264 56.9898 19.864C56.7338 19.48 56.5418 18.88 56.4138 18.064C56.3818 17.936 56.3498 17.712 56.3178 17.392C56.3018 17.056 56.2778 16.696 56.2458 16.312C56.2298 15.912 56.2138 15.52 56.1978 15.136C56.1818 14.752 56.1738 14.432 56.1738 14.176C55.9018 14.4 55.6938 14.56 55.5498 14.656C55.4218 14.736 55.2938 14.776 55.1658 14.776C55.0218 14.76 54.8378 14.712 54.6138 14.632C54.3898 14.552 54.1898 14.448 54.0138 14.32C53.8858 14.208 53.7978 14.104 53.7498 14.008C53.7018 13.896 53.6458 13.704 53.5818 13.432C53.5338 13.208 53.4778 12.872 53.4138 12.424C53.3498 11.96 53.2938 11.504 53.2458 11.056C53.1978 10.592 53.1658 10.176 53.1498 9.808C53.1178 9.44 53.1178 9.232 53.1498 9.184C53.1658 9.12 53.2858 9.056 53.5098 8.992C53.7178 8.928 53.9578 8.88 54.2298 8.848C54.5018 8.8 54.7578 8.792 54.9978 8.824C55.2538 8.84 55.4298 8.912 55.5258 9.04C55.5578 9.088 55.5738 9.208 55.5738 9.4C55.5738 9.592 55.5658 9.848 55.5498 10.168C55.5498 10.472 55.5418 10.832 55.5258 11.248C55.5258 11.648 55.5258 12.08 55.5258 12.544L55.7898 12.472C55.9338 12.456 56.0938 12.472 56.2698 12.52C56.4618 12.552 56.6458 12.616 56.8218 12.712C56.9978 12.808 57.1658 12.928 57.3258 13.072C57.4858 13.2 57.6058 13.336 57.6858 13.48C57.7498 13.576 57.7978 13.68 57.8298 13.792C57.8778 13.904 57.9178 14.048 57.9498 14.224C57.9818 14.384 58.0138 14.592 58.0458 14.848C58.0938 15.088 58.1418 15.4 58.1898 15.784C58.2378 16.184 58.2778 16.56 58.3098 16.912C58.3578 17.264 58.3978 17.576 58.4298 17.848C58.4618 18.12 58.4938 18.344 58.5258 18.52C58.5738 18.696 58.6218 18.792 58.6698 18.808C58.7338 18.856 58.8458 18.784 59.0058 18.592C59.1658 18.384 59.3338 18.112 59.5098 17.776C59.7018 17.44 59.8778 17.056 60.0378 16.624C60.1978 16.192 60.3178 15.768 60.3978 15.352C60.4138 15.224 60.4938 15.152 60.6378 15.136C60.7818 15.104 60.9338 15.112 61.0938 15.16C61.2698 15.192 61.4298 15.248 61.5738 15.328C61.7338 15.408 61.8298 15.496 61.8618 15.592ZM68.014 13.168C68.062 13.088 68.142 13.064 68.254 13.096C68.366 13.112 68.478 13.16 68.59 13.24C68.702 13.32 68.782 13.424 68.83 13.552C68.894 13.68 68.902 13.8 68.854 13.912C68.582 14.488 68.278 15.056 67.942 15.616C67.622 16.16 67.286 16.664 66.934 17.128C66.582 17.576 66.23 17.976 65.878 18.328C65.526 18.664 65.198 18.92 64.894 19.096C64.606 19.256 64.302 19.336 63.982 19.336C63.678 19.336 63.382 19.28 63.094 19.168C62.822 19.056 62.566 18.904 62.326 18.712C62.086 18.504 61.894 18.28 61.75 18.04C61.654 17.88 61.566 17.72 61.486 17.56C61.422 17.4 61.374 17.232 61.342 17.056C61.31 16.864 61.294 16.648 61.294 16.408C61.278 16.168 61.27 15.888 61.27 15.568C61.318 14.352 61.518 13.368 61.87 12.616C62.222 11.848 62.694 11.376 63.286 11.2C63.574 11.12 63.87 11.112 64.174 11.176C64.494 11.24 64.782 11.36 65.038 11.536C65.31 11.712 65.534 11.936 65.71 12.208C65.902 12.48 66.014 12.776 66.046 13.096C66.078 13.48 66.006 13.84 65.83 14.176C65.67 14.512 65.446 14.792 65.158 15.016C64.886 15.224 64.574 15.368 64.222 15.448C63.886 15.512 63.55 15.48 63.214 15.352C63.198 15.448 63.174 15.656 63.142 15.976C63.11 16.28 63.094 16.592 63.094 16.912C63.11 17.232 63.15 17.512 63.214 17.752C63.278 17.992 63.398 18.096 63.574 18.064C63.798 18.016 64.054 17.88 64.342 17.656C64.646 17.416 65.014 17.08 65.446 16.648C66.022 16.088 66.502 15.512 66.886 14.92C67.286 14.312 67.662 13.728 68.014 13.168ZM63.478 13.888C63.43 14.016 63.446 14.08 63.526 14.08C63.558 14.08 63.598 14.064 63.646 14.032C63.71 13.984 63.766 13.936 63.814 13.888C63.942 13.744 64.046 13.568 64.126 13.36C64.206 13.152 64.278 12.864 64.342 12.496C64.166 12.656 63.99 12.888 63.814 13.192C63.654 13.48 63.542 13.712 63.478 13.888ZM72.2314 9.328C72.1514 9.328 72.0474 9.28 71.9194 9.184C71.7914 9.072 71.6714 8.944 71.5594 8.8C71.4314 8.656 71.3274 8.512 71.2474 8.368C71.1674 8.224 71.1274 8.112 71.1274 8.032C71.1274 7.856 71.3034 7.688 71.6554 7.528C72.0074 7.352 72.4074 7.2 72.8554 7.072C73.3034 6.928 73.7354 6.816 74.1514 6.736C74.5674 6.64 74.8474 6.576 74.9914 6.544C75.0074 6.448 75.0234 6.28 75.0394 6.04C75.0714 5.784 75.1114 5.528 75.1594 5.272C75.2234 5 75.3034 4.76 75.3994 4.552C75.4954 4.344 75.6154 4.24 75.7594 4.24C75.8714 4.24 75.9914 4.272 76.1194 4.336C76.2474 4.4 76.3674 4.48 76.4794 4.576C76.6074 4.672 76.7114 4.784 76.7914 4.912C76.8714 5.024 76.9114 5.136 76.9114 5.248V6.136C77.4554 6.008 78.0314 5.856 78.6394 5.68C79.2474 5.488 79.8474 5.392 80.4394 5.392C80.5194 5.392 80.6154 5.44 80.7274 5.536C80.8554 5.616 80.9674 5.72 81.0634 5.848C81.1754 5.96 81.2634 6.08 81.3274 6.208C81.4074 6.336 81.4474 6.44 81.4474 6.52C81.4474 6.584 81.4394 6.656 81.4234 6.736C81.4234 6.8 81.3914 6.848 81.3274 6.88C80.6874 7.136 79.9514 7.352 79.1194 7.528C78.2874 7.704 77.4874 7.912 76.7194 8.152C76.6874 9.016 76.6714 9.888 76.6714 10.768C76.6714 11.632 76.6714 12.496 76.6714 13.36C76.6714 14.016 76.6874 14.648 76.7194 15.256C76.7514 15.848 76.8474 16.456 77.0074 17.08C77.0714 17.016 77.1674 16.848 77.2954 16.576C77.4394 16.304 77.5834 16 77.7274 15.664C77.8874 15.328 78.0314 15 78.1594 14.68C78.3034 14.344 78.4154 14.096 78.4954 13.936C78.5434 13.824 78.6314 13.768 78.7594 13.768C78.8394 13.768 78.9514 13.784 79.0954 13.816C79.2554 13.848 79.4074 13.896 79.5514 13.96C79.6954 14.024 79.8154 14.096 79.9114 14.176C80.0234 14.256 80.0794 14.352 80.0794 14.464C80.0794 14.656 80.0474 14.92 79.9834 15.256C79.9194 15.592 79.8234 15.952 79.6954 16.336C79.5674 16.72 79.4154 17.112 79.2394 17.512C79.0634 17.896 78.8634 18.248 78.6394 18.568C78.4314 18.872 78.1994 19.12 77.9434 19.312C77.6874 19.52 77.4154 19.624 77.1274 19.624C76.4394 19.624 75.9034 19.44 75.5194 19.072C75.1514 18.704 74.8794 18.248 74.7034 17.704C74.5434 17.16 74.4554 16.576 74.4394 15.952C74.4074 15.328 74.3914 14.76 74.3914 14.248C74.3914 13.336 74.4394 12.432 74.5354 11.536C74.6154 10.624 74.6554 9.712 74.6554 8.8C74.2874 8.896 73.8874 9.008 73.4554 9.136C73.0074 9.264 72.5994 9.328 72.2314 9.328ZM89.2021 13.984C89.2021 14.224 89.0981 14.528 88.8901 14.896C88.6821 15.248 88.3861 15.584 88.0021 15.904C87.6341 16.224 87.1781 16.488 86.6341 16.696C86.1061 16.888 85.5141 16.952 84.8581 16.888C84.4581 18.024 83.9141 18.824 83.2261 19.288C82.5381 19.768 81.8341 19.904 81.1141 19.696C80.1861 19.44 79.5461 18.928 79.1941 18.16C79.0661 17.888 78.9861 17.504 78.9541 17.008C78.9061 16.512 78.9221 15.992 79.0021 15.448C79.0661 14.888 79.1941 14.344 79.3861 13.816C79.5621 13.272 79.8101 12.824 80.1301 12.472C80.4501 12.104 80.8341 11.872 81.2821 11.776C81.7461 11.664 82.2821 11.76 82.8901 12.064C83.5301 12.384 84.0101 12.792 84.3301 13.288C84.6501 13.768 84.8501 14.408 84.9301 15.208C85.3621 15.208 85.7381 15.176 86.0581 15.112C86.3941 15.048 86.6901 14.952 86.9461 14.824C87.2181 14.696 87.4661 14.536 87.6901 14.344C87.9141 14.136 88.1381 13.888 88.3621 13.6C88.4101 13.536 88.4821 13.512 88.5781 13.528C88.6741 13.528 88.7621 13.552 88.8421 13.6C88.9381 13.648 89.0181 13.712 89.0821 13.792C89.1621 13.856 89.2021 13.92 89.2021 13.984ZM80.9941 18.328C81.1381 18.376 81.3061 18.368 81.4981 18.304C81.6901 18.224 81.8821 18.096 82.0741 17.92C82.2661 17.728 82.4421 17.496 82.6021 17.224C82.7621 16.952 82.8821 16.648 82.9621 16.312C82.3541 15.992 81.9141 15.64 81.6421 15.256C81.3701 14.856 81.2421 14.56 81.2581 14.368C81.1621 14.576 81.0661 14.888 80.9701 15.304C80.8901 15.72 80.8261 16.144 80.7781 16.576C80.7461 17.008 80.7381 17.4 80.7541 17.752C80.7861 18.088 80.8661 18.28 80.9941 18.328ZM83.2021 14.488C83.2181 14.472 83.2101 14.384 83.1781 14.224C83.1461 14.048 83.0901 13.872 83.0101 13.696C82.9461 13.52 82.8661 13.36 82.7701 13.216C82.6741 13.056 82.5861 12.976 82.5061 12.976C82.4421 12.976 82.3621 13 82.2661 13.048C82.1861 13.08 82.1461 13.104 82.1461 13.12C82.1461 13.168 82.1861 13.264 82.2661 13.408C82.3621 13.536 82.4661 13.68 82.5781 13.84C82.7061 13.984 82.8261 14.12 82.9381 14.248C83.0661 14.376 83.1541 14.456 83.2021 14.488ZM29.7016 32.944C29.7976 32.848 29.9576 32.832 30.1816 32.896C30.4056 32.96 30.6456 33.088 30.9016 33.28C31.1576 33.456 31.4056 33.672 31.6456 33.928C31.9016 34.184 32.1016 34.456 32.2456 34.744C32.4696 35.176 32.6376 35.816 32.7496 36.664C32.8616 37.496 32.9656 38.464 33.0616 39.568L33.1576 40.6L33.4936 39.808C33.6536 39.408 33.8376 38.864 34.0456 38.176C34.2696 37.472 34.5016 36.704 34.7416 35.872C34.9816 35.024 35.2136 34.152 35.4376 33.256C35.6776 32.344 35.8936 31.472 36.0856 30.64C36.1976 30.176 36.2936 29.776 36.3736 29.44C36.4536 29.104 36.5096 28.928 36.5416 28.912C36.5896 28.864 36.6856 28.872 36.8296 28.936C36.9896 28.984 37.1496 29.08 37.3096 29.224C37.4536 29.352 37.5576 29.456 37.6216 29.536C37.6856 29.616 37.7256 29.736 37.7416 29.896C37.7576 30.04 37.7416 30.24 37.6936 30.496C37.6616 30.752 37.5976 31.112 37.5016 31.576C37.1976 33.048 36.8696 34.488 36.5176 35.896C36.1656 37.288 35.8056 38.56 35.4376 39.712C35.0856 40.864 34.7416 41.84 34.4056 42.64C34.0856 43.44 33.8056 43.968 33.5656 44.224C33.4376 44.352 33.2776 44.424 33.0856 44.44C32.9096 44.456 32.6776 44.4 32.3896 44.272C31.8296 44.048 31.4536 43.728 31.2616 43.312C31.2136 43.232 31.1736 43.144 31.1416 43.048C31.1256 42.952 31.1096 42.808 31.0936 42.616C31.0936 42.408 31.0856 42.128 31.0696 41.776C31.0536 41.424 31.0376 40.944 31.0216 40.336C30.9896 39.216 30.9496 38.288 30.9016 37.552C30.8696 36.816 30.8216 36.224 30.7576 35.776C30.6776 35.328 30.5816 34.992 30.4696 34.768C30.3576 34.544 30.2136 34.376 30.0376 34.264C29.7816 34.104 29.6296 33.88 29.5816 33.592C29.5336 33.288 29.5736 33.072 29.7016 32.944ZM41.2454 35.272C41.2454 35.528 41.1814 35.688 41.0534 35.752C40.9414 35.816 40.8054 35.832 40.6454 35.8C40.4854 35.752 40.3174 35.672 40.1414 35.56C39.9654 35.448 39.8294 35.336 39.7334 35.224C39.6214 35.096 39.5654 34.896 39.5654 34.624C39.5654 34.336 39.5654 34.04 39.5654 33.736C39.5654 33.384 39.5814 33 39.6134 32.584C39.6614 32.152 39.7094 31.752 39.7574 31.384C39.8054 31 39.8534 30.672 39.9014 30.4C39.9654 30.112 40.0134 29.928 40.0454 29.848C40.1734 29.592 40.4454 29.544 40.8614 29.704C41.3734 29.896 41.6614 30.152 41.7254 30.472C41.7894 30.792 41.7734 31.224 41.6774 31.768C41.5494 32.536 41.4454 33.248 41.3654 33.904C41.2854 34.544 41.2454 35 41.2454 35.272ZM44.4614 39.64C44.5734 39.752 44.6214 39.88 44.6054 40.024C44.5894 40.152 44.4774 40.432 44.2694 40.864C44.1254 41.184 43.9334 41.528 43.6934 41.896C43.4534 42.264 43.2054 42.608 42.9494 42.928C42.7094 43.248 42.4694 43.528 42.2294 43.768C41.9894 44.024 41.7894 44.192 41.6294 44.272C41.4374 44.368 41.2134 44.416 40.9574 44.416C40.7014 44.416 40.4454 44.376 40.1894 44.296C39.9494 44.232 39.7174 44.12 39.4934 43.96C39.2854 43.816 39.1174 43.64 38.9894 43.432C38.9414 43.352 38.9014 43.168 38.8694 42.88C38.8534 42.592 38.8454 42.248 38.8454 41.848C38.8294 41.448 38.8294 41.016 38.8454 40.552C38.8614 40.072 38.8854 39.616 38.9174 39.184C38.9494 38.736 38.9894 38.328 39.0374 37.96C39.0854 37.592 39.1494 37.304 39.2294 37.096C39.3414 36.792 39.4854 36.648 39.6614 36.664C39.7414 36.664 39.8454 36.688 39.9734 36.736C40.1014 36.768 40.2294 36.808 40.3574 36.856C40.4854 36.904 40.6054 36.968 40.7174 37.048C40.8294 37.112 40.9094 37.184 40.9574 37.264C40.9734 37.312 40.9894 37.368 41.0054 37.432C41.0214 37.48 41.0214 37.568 41.0054 37.696C41.0054 37.808 40.9974 37.968 40.9814 38.176C40.9654 38.384 40.9414 38.656 40.9094 38.992C40.8774 39.408 40.8294 39.928 40.7654 40.552C40.7174 41.16 40.6774 41.904 40.6454 42.784C40.9814 42.416 41.3094 42.048 41.6294 41.68C41.9494 41.312 42.2214 40.96 42.4454 40.624C42.5094 40.528 42.5974 40.4 42.7094 40.24C42.8374 40.08 42.9574 39.92 43.0694 39.76C43.1814 39.6 43.2854 39.464 43.3814 39.352C43.4774 39.224 43.5494 39.152 43.5974 39.136C43.7574 39.056 44.0454 39.224 44.4614 39.64ZM51.4853 40.912C51.4853 41.52 51.3893 42.104 51.1973 42.664C51.0053 43.224 50.7253 43.712 50.3573 44.128C50.0053 44.56 49.5733 44.904 49.0613 45.16C48.5493 45.416 47.9653 45.544 47.3093 45.544C46.9413 45.544 46.5653 45.48 46.1813 45.352C45.8133 45.224 45.4773 45.04 45.1733 44.8C44.8693 44.56 44.6213 44.272 44.4293 43.936C44.2373 43.6 44.1413 43.232 44.1413 42.832C44.1413 42.544 44.2293 42.176 44.4053 41.728C44.5973 41.264 44.8373 40.816 45.1253 40.384C45.4133 39.936 45.7253 39.552 46.0613 39.232C46.3973 38.912 46.7173 38.752 47.0213 38.752C47.1173 38.752 47.2613 38.792 47.4533 38.872C47.6453 38.936 47.8293 39.024 48.0053 39.136C48.1813 39.232 48.3173 39.336 48.4133 39.448C48.5253 39.544 48.5413 39.624 48.4613 39.688C48.3813 39.768 48.2533 39.928 48.0773 40.168C47.9013 40.408 47.7093 40.688 47.5013 41.008C47.3093 41.328 47.1093 41.664 46.9013 42.016C46.7093 42.368 46.5493 42.696 46.4213 43C46.3093 43.304 46.2453 43.56 46.2293 43.768C46.2133 43.992 46.2853 44.112 46.4453 44.128C46.9093 44.224 47.3093 44.12 47.6453 43.816C47.9973 43.512 48.2853 43.128 48.5093 42.664C48.7333 42.2 48.8933 41.704 48.9893 41.176C49.1013 40.648 49.1573 40.2 49.1573 39.832C49.1573 39.16 49.0693 38.56 48.8933 38.032C48.7173 37.488 48.4933 36.992 48.2213 36.544C47.9653 36.096 47.6853 35.68 47.3813 35.296C47.0773 34.912 46.7893 34.544 46.5173 34.192C46.2613 33.824 46.0453 33.464 45.8693 33.112C45.6933 32.744 45.6053 32.36 45.6053 31.96C45.6053 31.656 45.6613 31.344 45.7733 31.024C45.9013 30.688 46.0693 30.392 46.2773 30.136C46.5013 29.864 46.7573 29.648 47.0453 29.488C47.3333 29.312 47.6453 29.224 47.9813 29.224C48.1733 29.224 48.4133 29.288 48.7013 29.416C48.9893 29.528 49.2533 29.672 49.4933 29.848C49.7493 30.024 49.9413 30.216 50.0693 30.424C50.2133 30.632 50.2293 30.824 50.1173 31C50.0373 31.096 49.9653 31.144 49.9013 31.144C49.8373 31.128 49.7733 31.096 49.7093 31.048C49.6453 30.984 49.5813 30.92 49.5173 30.856C49.4693 30.792 49.4133 30.76 49.3493 30.76C49.1573 30.76 48.9573 30.8 48.7493 30.88C48.5573 30.96 48.3733 31.088 48.1973 31.264C48.0373 31.44 47.9013 31.672 47.7893 31.96C47.6933 32.248 47.6533 32.6 47.6693 33.016C47.6693 33.224 47.7653 33.464 47.9573 33.736C48.1493 34.008 48.3893 34.328 48.6773 34.696C48.9653 35.048 49.2693 35.448 49.5893 35.896C49.9253 36.328 50.2293 36.808 50.5013 37.336C50.7893 37.848 51.0213 38.408 51.1973 39.016C51.3893 39.608 51.4853 40.24 51.4853 40.912ZM55.0482 35.272C55.0482 35.528 54.9842 35.688 54.8562 35.752C54.7442 35.816 54.6082 35.832 54.4482 35.8C54.2882 35.752 54.1202 35.672 53.9442 35.56C53.7682 35.448 53.6322 35.336 53.5362 35.224C53.4242 35.096 53.3682 34.896 53.3682 34.624C53.3682 34.336 53.3682 34.04 53.3682 33.736C53.3682 33.384 53.3842 33 53.4162 32.584C53.4642 32.152 53.5122 31.752 53.5602 31.384C53.6082 31 53.6562 30.672 53.7042 30.4C53.7682 30.112 53.8162 29.928 53.8482 29.848C53.9762 29.592 54.2482 29.544 54.6642 29.704C55.1762 29.896 55.4642 30.152 55.5282 30.472C55.5922 30.792 55.5762 31.224 55.4802 31.768C55.3522 32.536 55.2482 33.248 55.1682 33.904C55.0882 34.544 55.0482 35 55.0482 35.272ZM58.2642 39.64C58.3762 39.752 58.4242 39.88 58.4082 40.024C58.3922 40.152 58.2802 40.432 58.0722 40.864C57.9282 41.184 57.7362 41.528 57.4962 41.896C57.2562 42.264 57.0082 42.608 56.7522 42.928C56.5122 43.248 56.2722 43.528 56.0322 43.768C55.7922 44.024 55.5922 44.192 55.4322 44.272C55.2402 44.368 55.0162 44.416 54.7602 44.416C54.5042 44.416 54.2482 44.376 53.9922 44.296C53.7522 44.232 53.5202 44.12 53.2962 43.96C53.0882 43.816 52.9202 43.64 52.7922 43.432C52.7442 43.352 52.7042 43.168 52.6722 42.88C52.6562 42.592 52.6482 42.248 52.6482 41.848C52.6322 41.448 52.6322 41.016 52.6482 40.552C52.6642 40.072 52.6882 39.616 52.7202 39.184C52.7522 38.736 52.7922 38.328 52.8402 37.96C52.8882 37.592 52.9522 37.304 53.0322 37.096C53.1442 36.792 53.2882 36.648 53.4642 36.664C53.5442 36.664 53.6482 36.688 53.7762 36.736C53.9042 36.768 54.0322 36.808 54.1602 36.856C54.2882 36.904 54.4082 36.968 54.5202 37.048C54.6322 37.112 54.7122 37.184 54.7602 37.264C54.7762 37.312 54.7922 37.368 54.8082 37.432C54.8242 37.48 54.8242 37.568 54.8082 37.696C54.8082 37.808 54.8002 37.968 54.7842 38.176C54.7682 38.384 54.7442 38.656 54.7122 38.992C54.6802 39.408 54.6322 39.928 54.5682 40.552C54.5202 41.16 54.4802 41.904 54.4482 42.784C54.7842 42.416 55.1122 42.048 55.4322 41.68C55.7522 41.312 56.0242 40.96 56.2482 40.624C56.3122 40.528 56.4002 40.4 56.5122 40.24C56.6402 40.08 56.7602 39.92 56.8722 39.76C56.9842 39.6 57.0882 39.464 57.1842 39.352C57.2802 39.224 57.3522 39.152 57.4002 39.136C57.5602 39.056 57.8482 39.224 58.2642 39.64ZM55.6161 33.328C55.5361 33.328 55.4321 33.28 55.3041 33.184C55.1761 33.072 55.0561 32.944 54.9441 32.8C54.8161 32.656 54.7121 32.512 54.6321 32.368C54.5521 32.224 54.5121 32.112 54.5121 32.032C54.5121 31.856 54.6881 31.688 55.0401 31.528C55.3921 31.352 55.7921 31.2 56.2401 31.072C56.6881 30.928 57.1201 30.816 57.5361 30.736C57.9521 30.64 58.2321 30.576 58.3761 30.544C58.3921 30.448 58.4081 30.28 58.4241 30.04C58.4561 29.784 58.4961 29.528 58.5441 29.272C58.6081 29 58.6881 28.76 58.7841 28.552C58.8801 28.344 59.0001 28.24 59.1441 28.24C59.2561 28.24 59.3761 28.272 59.5041 28.336C59.6321 28.4 59.7521 28.48 59.8641 28.576C59.9921 28.672 60.0961 28.784 60.1761 28.912C60.2561 29.024 60.2961 29.136 60.2961 29.248V30.136C60.8401 30.008 61.4161 29.856 62.0241 29.68C62.6321 29.488 63.2321 29.392 63.8241 29.392C63.9041 29.392 64.0001 29.44 64.1121 29.536C64.2401 29.616 64.3521 29.72 64.4481 29.848C64.5601 29.96 64.6481 30.08 64.7121 30.208C64.7921 30.336 64.8321 30.44 64.8321 30.52C64.8321 30.584 64.8241 30.656 64.8081 30.736C64.8081 30.8 64.7761 30.848 64.7121 30.88C64.0721 31.136 63.3361 31.352 62.5041 31.528C61.6721 31.704 60.8721 31.912 60.1041 32.152C60.0721 33.016 60.0561 33.888 60.0561 34.768C60.0561 35.632 60.0561 36.496 60.0561 37.36C60.0561 38.016 60.0721 38.648 60.1041 39.256C60.1361 39.848 60.2321 40.456 60.3921 41.08C60.4561 41.016 60.5521 40.848 60.6801 40.576C60.8241 40.304 60.9681 40 61.1121 39.664C61.2721 39.328 61.4161 39 61.5441 38.68C61.6881 38.344 61.8001 38.096 61.8801 37.936C61.9281 37.824 62.0161 37.768 62.1441 37.768C62.2241 37.768 62.3361 37.784 62.4801 37.816C62.6401 37.848 62.7921 37.896 62.9361 37.96C63.0801 38.024 63.2001 38.096 63.2961 38.176C63.4081 38.256 63.4641 38.352 63.4641 38.464C63.4641 38.656 63.4321 38.92 63.3681 39.256C63.3041 39.592 63.2081 39.952 63.0801 40.336C62.9521 40.72 62.8001 41.112 62.6241 41.512C62.4481 41.896 62.2481 42.248 62.0241 42.568C61.8161 42.872 61.5841 43.12 61.3281 43.312C61.0721 43.52 60.8001 43.624 60.5121 43.624C59.8241 43.624 59.2881 43.44 58.9041 43.072C58.5361 42.704 58.2641 42.248 58.0881 41.704C57.9281 41.16 57.8401 40.576 57.8241 39.952C57.7921 39.328 57.7761 38.76 57.7761 38.248C57.7761 37.336 57.8241 36.432 57.9201 35.536C58.0001 34.624 58.0401 33.712 58.0401 32.8C57.6721 32.896 57.2721 33.008 56.8401 33.136C56.3921 33.264 55.9841 33.328 55.6161 33.328Z" fill="url(#paint0_linear)"/>
<defs>
<linearGradient id="paint0_linear" x1="28.1177" y1="11" x2="77.3373" y2="26.4206" gradientUnits="userSpaceOnUse">
<stop offset="0.260318" stop-color="#005B8E"/>
<stop offset="1" stop-color="#0098EE"/>
</linearGradient>
</defs>
</svg>
